<svg xmlns="http://www.w3.org/2000/svg" width="276.193" height="95.967" viewBox="0 0 276.193 95.967">
  <defs>
    <style>
      .cls-1 {
        fill: #742fc2;
      }

      .cls-2 {
        fill: #c9a4ff;
      }
    </style>
  </defs>
  <g id="Grupo_5" data-name="Grupo 5" transform="translate(-423.482 -377.37)">
    <rect id="Ret창ngulo_2" data-name="Ret창ngulo 2" class="cls-1" width="17.875" height="17.875" rx="4.499" transform="translate(482.623 383.44)"/>
    <rect id="Ret창ngulo_3" data-name="Ret창ngulo 3" class="cls-1" width="13.564" height="13.564" rx="4.06" transform="translate(471.071 404.22)"/>
    <path id="Caminho_1" data-name="Caminho 1" class="cls-1" d="M357.21,66.579V68.4a7.292,7.292,0,0,1-7.292,7.292l-.4,0h-9.236l.489,0a7.292,7.292,0,0,1,0-14.583H357.21Z" transform="translate(90 372.767)"/>
    <path id="Caminho_2" data-name="Caminho 2" class="cls-1" d="M357.179,31.945V30.122A1.822,1.822,0,0,1,359,28.3l14.52.009V28.3a7.291,7.291,0,0,0,7.291-7.292V11.894A7.291,7.291,0,0,0,373.521,4.6H340.773a7.291,7.291,0,0,0-7.291,7.291V30.123a7.291,7.291,0,0,0,7.291,7.291h16.374Z" transform="translate(90 372.767)"/>
    <path id="Caminho_3" data-name="Caminho 3" class="cls-2" d="M333.482,68.4a7.291,7.291,0,0,1,7.291-7.291h23.8a7.292,7.292,0,0,0,7.292-7.291V44.705a7.291,7.291,0,0,0-7.292-7.291h-23.8a7.291,7.291,0,0,1-7.291-7.291V68.4Z" transform="translate(90 372.767)"/>
    <g id="Grupo_1" data-name="Grupo 1" transform="translate(90 372.767)">
      <path id="Caminho_4" data-name="Caminho 4" class="cls-1" d="M409.586,53.032q0-3.951,4.242-3.952h20.631q3.487,0,3.487,3.138a5.518,5.518,0,0,1-.348,2.005,9.333,9.333,0,0,1-.524,1.192H416.618V65.992h16.155q3.489,0,3.488,3.137a5.514,5.514,0,0,1-.349,2.005,9.226,9.226,0,0,1-.523,1.192H416.618V88.947h-7.032Z"/>
      <path id="Caminho_5" data-name="Caminho 5" class="cls-1" d="M466.481,88.831q-.58.117-1.831.261t-2.934.29q-1.686.145-3.778.262t-4.358.116a28.89,28.89,0,0,1-7.41-.784,12.639,12.639,0,0,1-4.532-2.093,6.708,6.708,0,0,1-2.267-3.021,10.407,10.407,0,0,1-.61-3.516,11.118,11.118,0,0,1,.726-4.184,6.939,6.939,0,0,1,2.383-3.023,11.582,11.582,0,0,1,4.329-1.83,29.706,29.706,0,0,1,6.509-.61q2.208,0,4.185.145t2.963.262a7.506,7.506,0,0,0-.669-3.371,5.21,5.21,0,0,0-1.83-2.092,7.492,7.492,0,0,0-2.79-1.046,20.535,20.535,0,0,0-3.6-.291,15.4,15.4,0,0,0-5.318.756A10.7,10.7,0,0,0,443,66.34a7.007,7.007,0,0,1-.959-1.1,3.2,3.2,0,0,1-.61-1.976,3.252,3.252,0,0,1,.436-1.6,3.77,3.77,0,0,1,1.54-1.4,10.023,10.023,0,0,1,2.964-.959,26.292,26.292,0,0,1,4.707-.349,27.2,27.2,0,0,1,6.247.668,13.731,13.731,0,0,1,4.853,2.122,9.79,9.79,0,0,1,3.167,3.835,13.319,13.319,0,0,1,1.133,5.754Zm-6.567-12.9q-.582-.116-2.179-.348a36.228,36.228,0,0,0-4.795-.233q-3.951,0-5.753,1.192a4.168,4.168,0,0,0-1.8,3.748,4.758,4.758,0,0,0,.378,1.918,3.381,3.381,0,0,0,1.307,1.481,7.183,7.183,0,0,0,2.528.931,20.777,20.777,0,0,0,3.981.319,34.614,34.614,0,0,0,4.242-.2q1.569-.2,2.092-.32Z"/>
      <path id="Caminho_6" data-name="Caminho 6" class="cls-1" d="M472.582,49.2a2.817,2.817,0,0,1,.931-2.324,4.043,4.043,0,0,1,2.615-.756,6.7,6.7,0,0,1,1.917.261q.871.262,1.163.378V63.434a11.785,11.785,0,0,1,4.01-3.167,12.707,12.707,0,0,1,5.869-1.308,15.082,15.082,0,0,1,5.9,1.134,14.09,14.09,0,0,1,4.708,3.2,14.889,14.889,0,0,1,3.138,4.88,16.446,16.446,0,0,1,1.134,6.19,16.137,16.137,0,0,1-1.163,6.16,14.232,14.232,0,0,1-3.254,4.882,15.2,15.2,0,0,1-4.969,3.2,16.68,16.68,0,0,1-6.306,1.162,18.308,18.308,0,0,1-6.305-1.046A13.4,13.4,0,0,1,477,85.576a14.277,14.277,0,0,1-3.254-5.23,21.238,21.238,0,0,1-1.163-7.381Zm15.575,34.579a8.932,8.932,0,0,0,3.632-.727,8.713,8.713,0,0,0,2.848-1.976,8.593,8.593,0,0,0,1.831-2.964,10.669,10.669,0,0,0,.638-3.748,10.924,10.924,0,0,0-.638-3.778,8.562,8.562,0,0,0-1.831-2.993,8.74,8.74,0,0,0-2.848-1.975,8.932,8.932,0,0,0-3.632-.727,9.078,9.078,0,0,0-3.69.727,8.212,8.212,0,0,0-2.819,2.005,9.489,9.489,0,0,0-1.831,3.021,10.321,10.321,0,0,0-.668,3.72,10.649,10.649,0,0,0,.668,3.836,8.367,8.367,0,0,0,4.708,4.882A9.282,9.282,0,0,0,488.157,83.775Z"/>
      <path id="Caminho_7" data-name="Caminho 7" class="cls-1" d="M535.869,88.831q-.582.117-1.831.261t-2.935.29q-1.686.145-3.777.262t-4.358.116a28.885,28.885,0,0,1-7.41-.784,12.653,12.653,0,0,1-4.533-2.093,6.713,6.713,0,0,1-2.266-3.021,10.384,10.384,0,0,1-.611-3.516,11.117,11.117,0,0,1,.727-4.184,6.925,6.925,0,0,1,2.383-3.023,11.575,11.575,0,0,1,4.329-1.83,29.707,29.707,0,0,1,6.509-.61q2.207,0,4.184.145t2.964.262a7.519,7.519,0,0,0-.669-3.371,5.218,5.218,0,0,0-1.83-2.092,7.492,7.492,0,0,0-2.79-1.046,20.539,20.539,0,0,0-3.6-.291,15.39,15.39,0,0,0-5.317.756,10.686,10.686,0,0,0-2.644,1.278,7.008,7.008,0,0,1-.959-1.1,3.2,3.2,0,0,1-.611-1.976,3.254,3.254,0,0,1,.437-1.6,3.764,3.764,0,0,1,1.54-1.4,10.014,10.014,0,0,1,2.964-.959,26.283,26.283,0,0,1,4.707-.349,27.2,27.2,0,0,1,6.247.668,13.719,13.719,0,0,1,4.852,2.122,9.781,9.781,0,0,1,3.167,3.835,13.3,13.3,0,0,1,1.134,5.754Zm-6.567-12.9q-.582-.116-2.179-.348a36.228,36.228,0,0,0-4.795-.233q-3.953,0-5.753,1.192a4.169,4.169,0,0,0-1.8,3.748,4.758,4.758,0,0,0,.378,1.918,3.384,3.384,0,0,0,1.308,1.481,7.186,7.186,0,0,0,2.527.931,20.8,20.8,0,0,0,3.982.319,34.615,34.615,0,0,0,4.242-.2q1.569-.2,2.092-.32Z"/>
      <path id="Caminho_8" data-name="Caminho 8" class="cls-1" d="M541.97,75.7a20.409,20.409,0,0,1,1.163-7.178,14.613,14.613,0,0,1,3.254-5.229,13.708,13.708,0,0,1,5.055-3.226,18.716,18.716,0,0,1,6.568-1.1,15.71,15.71,0,0,1,6.1,1.163,15.118,15.118,0,0,1,4.853,3.2,14.435,14.435,0,0,1,3.224,4.882,16.122,16.122,0,0,1,1.163,6.16,16.434,16.434,0,0,1-1.133,6.189,14.554,14.554,0,0,1-3.138,4.853,14.3,14.3,0,0,1-4.708,3.167,15.089,15.089,0,0,1-5.9,1.134,12.95,12.95,0,0,1-5.87-1.28,11.453,11.453,0,0,1-4.009-3.137V100.57H541.97Zm15.575,8.135a8.935,8.935,0,0,0,3.632-.726,8.492,8.492,0,0,0,2.847-2.005,8.836,8.836,0,0,0,1.831-3.021,10.9,10.9,0,0,0,.639-3.778,10.477,10.477,0,0,0-.639-3.69,8.587,8.587,0,0,0-1.831-2.964,8.756,8.756,0,0,0-2.847-1.977,8.968,8.968,0,0,0-3.632-.725,9.261,9.261,0,0,0-3.632.7,8.411,8.411,0,0,0-4.708,4.853,11.1,11.1,0,0,0,0,7.584,9.471,9.471,0,0,0,1.831,3.021,8.182,8.182,0,0,0,2.818,2.005A9.083,9.083,0,0,0,557.545,83.832Z"/>
      <path id="Caminho_9" data-name="Caminho 9" class="cls-1" d="M578.292,75.7a20.431,20.431,0,0,1,1.163-7.178,14.613,14.613,0,0,1,3.254-5.229,13.7,13.7,0,0,1,5.056-3.226,18.711,18.711,0,0,1,6.567-1.1,15.718,15.718,0,0,1,6.1,1.163,15.124,15.124,0,0,1,4.852,3.2,14.451,14.451,0,0,1,3.225,4.882,16.142,16.142,0,0,1,1.163,6.16,16.434,16.434,0,0,1-1.134,6.189A14.554,14.554,0,0,1,605.4,85.4a14.3,14.3,0,0,1-4.708,3.167,15.086,15.086,0,0,1-5.9,1.134,12.942,12.942,0,0,1-5.869-1.28,11.466,11.466,0,0,1-4.01-3.137V100.57h-6.626Zm15.575,8.135a8.932,8.932,0,0,0,3.632-.726,8.5,8.5,0,0,0,2.848-2.005,8.853,8.853,0,0,0,1.831-3.021,10.919,10.919,0,0,0,.638-3.778,10.5,10.5,0,0,0-.638-3.69,8.6,8.6,0,0,0-1.831-2.964,8.761,8.761,0,0,0-2.848-1.977,8.964,8.964,0,0,0-3.632-.725,9.264,9.264,0,0,0-3.632.7,8.419,8.419,0,0,0-4.708,4.853,11.1,11.1,0,0,0,0,7.584,9.491,9.491,0,0,0,1.831,3.021,8.187,8.187,0,0,0,2.819,2.005A9.078,9.078,0,0,0,593.867,83.832Z"/>
    </g>
  </g>
</svg>
